<?xml version="1.0" standalone="no"?>
<!DOCTYPE svg PUBLIC "-//W3C//DTD SVG 20010904//EN"
 "http://www.w3.org/TR/2001/REC-SVG-20010904/DTD/svg10.dtd">
<svg version="1.0" xmlns="http://www.w3.org/2000/svg"
 width="512.000000pt" height="512.000000pt" viewBox="0 0 512.000000 512.000000"
 preserveAspectRatio="xMidYMid meet">
<metadata>
Created by potrace 1.14, written by Peter Selinger 2001-2017
</metadata>
<g transform="translate(0.000000,512.000000) scale(0.100000,-0.100000)"
fill="#000000" stroke="none">
<path d="M966 5109 c-97 -23 -219 -115 -270 -204 -12 -22 -30 -67 -39 -100
-16 -56 -17 -209 -17 -2040 l0 -1980 24 -67 c41 -117 110 -194 221 -248 80
-40 132 -45 387 -45 187 0 217 -2 220 -15 2 -8 3 -104 2 -212 0 -179 1 -197
15 -185 91 78 511 407 519 407 5 0 61 -42 123 -92 63 -51 131 -105 151 -120
20 -15 42 -33 50 -40 7 -8 33 -29 58 -48 25 -19 47 -37 50 -40 3 -3 26 -22 53
-43 l47 -38 0 214 0 214 758 0 c416 0 780 3 807 7 159 24 307 164 344 326 7
30 10 704 10 2025 0 1955 0 1981 -20 2038 -47 137 -136 226 -274 275 l-60 21
-1560 0 c-897 -1 -1576 -5 -1599 -10z"/>
</g>
</svg>
